<svg width="67" height="66" viewBox="0 0 67 66" fill="none" xmlns="http://www.w3.org/2000/svg">
<path d="M42.7417 11.4741C43.7394 11.4741 44.5503 12.285 44.5503 13.2828C44.5503 14.2805 43.7394 15.0914 42.7417 15.0914C41.744 15.0914 40.9331 14.2806 40.9331 13.2829L42.7417 11.4741ZM42.7417 11.4741C41.7439 11.4741 40.9329 12.285 40.9331 13.2828L42.7417 11.4741ZM24.726 22.5614C23.7283 22.5614 22.9174 21.7505 22.9174 20.7527C22.9174 19.755 23.7283 18.9441 24.726 18.9441C25.7237 18.9441 26.5346 19.7549 26.5346 20.7526L24.726 22.5614ZM24.726 22.5614C25.7236 22.5614 26.5347 21.7506 26.5346 20.7527L24.726 22.5614ZM16.0502 23.1157L16.1097 22.6193L16.0502 23.1157C16.1983 23.1335 16.3545 23.1545 16.5159 23.1762C16.9778 23.2385 17.4827 23.3065 17.9658 23.3197C18.6319 23.3379 19.3383 23.2583 19.9828 22.8926L21.1721 22.2177C21.7349 21.8983 21.9548 21.283 21.9548 20.7528C21.9548 19.2251 23.1985 17.9813 24.7263 17.9813C26.254 17.9813 27.4978 19.2251 27.4978 20.7528C27.4978 21.283 27.7176 21.8983 28.2804 22.2177L29.4697 22.8926C30.1143 23.2583 30.8206 23.3379 31.4867 23.3197C31.9698 23.3065 32.4748 23.2384 32.9367 23.1761C33.0981 23.1544 33.2542 23.1333 33.4023 23.1156C33.5109 23.1026 33.6216 23.0958 33.734 23.0958C34.4175 23.0958 35.2655 22.9014 35.7621 22.2075L39.3074 17.2532C39.7473 16.6384 39.9031 15.9291 39.9577 15.2505C39.9953 14.7818 39.9859 14.2824 39.9772 13.8232C39.9736 13.6347 39.9702 13.4529 39.9702 13.2828C39.9702 11.7551 41.2139 10.5112 42.7417 10.5112C44.2694 10.5112 45.5132 11.7551 45.5132 13.2828C45.5132 14.8106 44.2694 16.0543 42.7417 16.0543C42.058 16.0543 41.2101 16.2489 40.7136 16.9427L37.1684 21.8969C36.7285 22.5117 36.5726 23.2212 36.5181 23.8998C36.4804 24.3686 36.4899 24.8679 36.4986 25.3272C36.5021 25.5158 36.5056 25.6976 36.5056 25.8677C36.5056 27.3955 35.2618 28.6393 33.734 28.6393C32.2062 28.6393 30.9625 27.3955 30.9625 25.8677C30.9625 25.3376 30.7426 24.7222 30.1798 24.4028L28.9903 23.7279C28.3458 23.3622 27.6395 23.2825 26.9735 23.3007C26.4903 23.3139 25.9852 23.382 25.5232 23.4443C25.362 23.466 25.206 23.4871 25.058 23.5048C24.9494 23.5178 24.8387 23.5246 24.7263 23.5246C24.6139 23.5246 24.5032 23.5178 24.3946 23.5048C24.2465 23.4871 24.0904 23.466 23.929 23.4443C23.4671 23.382 22.9621 23.3139 22.479 23.3007C21.8129 23.2825 21.1066 23.3621 20.462 23.7279L19.2727 24.4027C18.7099 24.7221 18.49 25.3374 18.49 25.8676C18.49 27.3954 17.2463 28.6392 15.7186 28.6392C14.1908 28.6392 12.9471 27.3954 12.9471 25.8676C12.9471 24.3398 14.1908 23.096 15.7186 23.096C15.831 23.096 15.9416 23.1027 16.0502 23.1157ZM13.9096 25.8673C13.9096 26.8651 14.7204 27.6761 15.7182 27.6761C16.7159 27.6761 17.5268 26.8651 17.5268 25.8673C17.5268 24.8695 16.7159 24.0586 15.7182 24.0586C14.7204 24.0586 13.9096 24.8695 13.9096 25.8673ZM31.9252 25.8673C31.9252 26.8651 32.7361 27.6761 33.7338 27.6761C34.7315 27.6761 35.5426 26.8652 35.5426 25.8673C35.5426 24.8695 34.7317 24.0586 33.7338 24.0586C32.7361 24.0586 31.9252 24.8695 31.9252 25.8673Z" stroke="#5C4738"/>
<path d="M17.6287 64.7307L17.6285 64.7307C17.3918 64.6094 17.2982 64.3193 17.4195 64.0825L17.5655 63.7974C19.7829 59.4682 16.6389 54.3256 11.7749 54.3256C10.8205 54.3256 10.0433 53.5484 10.0433 52.594C10.0433 51.125 8.8524 49.9341 7.38335 49.9341H2.77618C1.52153 49.9341 0.5 48.9126 0.5 47.6579V7.16754C0.5 5.91289 1.52153 4.89136 2.77618 4.89136H7.40284C7.66876 4.89136 7.88429 5.10684 7.88429 5.3728C7.88429 5.63877 7.66876 5.85425 7.40284 5.85425H2.77618C2.05158 5.85425 1.46289 6.44294 1.46289 7.16754V47.6579C1.46289 48.3825 2.05158 48.9712 2.77618 48.9712H10.5248H47.9351H54.8034C55.0693 48.9712 55.2848 49.1867 55.2848 49.4526C55.2848 49.7186 55.0693 49.9341 54.8034 49.9341H51.0765C49.6074 49.9341 48.4165 51.125 48.4165 52.594C48.4165 53.5485 47.6393 54.3256 46.685 54.3256C41.8209 54.3256 38.677 59.4682 40.8944 63.7974L41.0404 64.0826L41.0404 64.0826C41.1617 64.3192 41.0682 64.6093 40.8313 64.7307C40.76 64.767 40.6854 64.7837 40.6127 64.7837C40.4365 64.7837 40.2684 64.6874 40.1835 64.5215L39.7384 64.7494L40.1835 64.5215L37.5739 59.4266C35.97 56.2953 32.7481 54.3256 29.2299 54.3256C25.7118 54.3256 22.4898 56.2953 20.886 59.4266L18.2764 64.5215L18.2763 64.5217C18.1915 64.6873 18.0235 64.7837 17.8471 64.7837C17.7737 64.7837 17.6993 64.767 17.6287 64.7307ZM46.685 53.3627C47.1092 53.3627 47.4536 53.0183 47.4536 52.594C47.4536 51.125 46.2627 49.9341 44.7937 49.9341H13.6662C12.1971 49.9341 11.0062 51.125 11.0062 52.594C11.0062 53.0183 11.3506 53.3627 11.7749 53.3627H46.685Z" stroke="#5C4738"/>
<path d="M25.2456 2.46212V2.46218C25.2456 2.46603 25.2457 2.46987 25.2458 2.4737V3.42681C25.2458 4.23567 25.9015 4.89138 26.7103 4.89138H30.785C32.1266 4.89138 33.2142 3.80382 33.2142 2.46225C33.2142 1.91061 32.766 1.46289 32.2147 1.46289H26.2451C25.6937 1.46289 25.2457 1.91062 25.2456 2.46212ZM25.375 2.79774C25.3167 2.73344 25.2749 2.65386 25.2564 2.56553C25.275 2.65317 25.3166 2.73302 25.375 2.79774ZM24.7642 5.85427H11.3286C11.0627 5.85427 10.8472 5.63879 10.8472 5.37282C10.8472 5.10686 11.0627 4.89138 11.3286 4.89138H21.8536C23.1952 4.89138 24.2828 3.80382 24.2828 2.46225C24.2828 1.38076 25.1636 0.5 26.2451 0.5H32.2147C33.2964 0.5 34.1771 1.38074 34.1771 2.46225C34.1771 3.80382 35.2646 4.89138 36.6062 4.89138H55.6835C56.9382 4.89138 57.9597 5.91291 57.9597 7.16756V16.4993C57.9597 16.7652 57.7442 16.9807 57.4783 16.9807C57.2123 16.9807 56.9968 16.7652 56.9968 16.4993V7.16756C56.9968 6.44296 56.4081 5.85427 55.6835 5.85427H33.6955H24.7642ZM25.7457 1.96225C25.8377 1.96225 25.9231 1.98679 25.9964 2.02934C25.9963 2.02938 25.9962 2.02941 25.9962 2.02945C25.9224 1.98668 25.8368 1.96225 25.7457 1.96225Z" stroke="#5C4738"/>
<mask id="path-4-inside-1" fill="white">
<path d="M13.7274 34.1567C13.1854 34.1567 12.746 34.596 12.746 35.1382V43.8105C12.746 44.3526 13.1854 44.7919 13.7274 44.7919H17.7091C18.2511 44.7919 18.6905 44.3526 18.6905 43.8105V35.1382C18.6905 34.596 18.2511 34.1567 17.7091 34.1567H13.7274ZM-nan -nanL16.7276 42.8292H15.7182C15.1608 42.8292 14.7089 42.3773 14.7089 41.8198V37.1291C14.7089 36.5717 15.1608 36.1198 15.7182 36.1198C16.2757 36.1198 16.7276 36.5717 16.7276 37.1291V42.8292L-nan -nanZ"/>
</mask>
<path d="M13.7274 33.1567C12.6332 33.1567 11.746 34.0437 11.746 35.1382H13.746C13.746 35.1381 13.746 35.1391 13.7456 35.1408C13.7453 35.1425 13.7448 35.1441 13.7441 35.1457C13.7429 35.1486 13.7415 35.1503 13.7405 35.1513C13.7395 35.1523 13.7378 35.1536 13.7349 35.1549C13.7334 35.1555 13.7317 35.156 13.7301 35.1564C13.7284 35.1567 13.7274 35.1567 13.7274 35.1567V33.1567ZM11.746 35.1382V43.8105H13.746V35.1382H11.746ZM11.746 43.8105C11.746 44.905 12.6332 45.7919 13.7274 45.7919V43.7919C13.7274 43.7919 13.7284 43.792 13.7301 43.7923C13.7317 43.7926 13.7334 43.7931 13.7349 43.7938C13.7378 43.795 13.7395 43.7964 13.7405 43.7974C13.7415 43.7984 13.7429 43.8001 13.7441 43.803C13.7448 43.8046 13.7453 43.8062 13.7456 43.8079C13.746 43.8096 13.746 43.8106 13.746 43.8105H11.746ZM13.7274 45.7919H17.7091V43.7919H13.7274V45.7919ZM17.7091 45.7919C18.8033 45.7919 19.6905 44.905 19.6905 43.8105H17.6905C17.6905 43.8106 17.6905 43.8096 17.6909 43.8079C17.6912 43.8062 17.6917 43.8046 17.6924 43.803C17.6936 43.8001 17.695 43.7984 17.696 43.7974C17.6969 43.7964 17.6987 43.795 17.7016 43.7938C17.7031 43.7931 17.7048 43.7926 17.7064 43.7923C17.7081 43.792 17.7091 43.7919 17.7091 43.7919V45.7919ZM19.6905 43.8105V35.1382H17.6905V43.8105H19.6905ZM19.6905 35.1382C19.6905 34.0437 18.8033 33.1567 17.7091 33.1567V35.1567C17.7091 35.1567 17.7081 35.1567 17.7064 35.1564C17.7048 35.156 17.7031 35.1555 17.7016 35.1549C17.6987 35.1536 17.6969 35.1523 17.696 35.1513C17.695 35.1503 17.6936 35.1486 17.6924 35.1457C17.6917 35.1441 17.6912 35.1425 17.6909 35.1408C17.6905 35.1391 17.6905 35.1381 17.6905 35.1382H19.6905ZM17.7091 33.1567H13.7274V35.1567H17.7091V33.1567ZM16.7276 41.8292H15.7182V43.8292H16.7276V41.8292ZM15.7089 41.8198V37.1291H13.7089V41.8198H15.7089ZM15.7276 37.1291V42.8292H17.7276V37.1291H15.7276ZM15.7182 37.1198C15.7202 37.1198 15.7211 37.1199 15.7212 37.12C15.7214 37.12 15.7215 37.12 15.7216 37.1201C15.722 37.1203 15.7233 37.1209 15.7249 37.1225C15.7265 37.1241 15.7271 37.1254 15.7273 37.1258C15.7274 37.1259 15.7274 37.126 15.7274 37.1262C15.7274 37.1263 15.7276 37.1272 15.7276 37.1291H17.7276C17.7276 36.0194 16.828 35.1198 15.7182 35.1198V37.1198ZM15.7089 37.1291C15.7089 37.1272 15.709 37.1263 15.7091 37.1262C15.7091 37.126 15.7091 37.1259 15.7092 37.1258C15.7094 37.1254 15.71 37.1241 15.7116 37.1225C15.7132 37.1209 15.7145 37.1203 15.7149 37.1201C15.715 37.12 15.7151 37.12 15.7153 37.12C15.7154 37.1199 15.7163 37.1198 15.7182 37.1198V35.1198C14.6085 35.1198 13.7089 36.0194 13.7089 37.1291H15.7089ZM15.7182 41.8292C15.7163 41.8292 15.7154 41.829 15.7153 41.829C15.7151 41.8289 15.715 41.8289 15.7149 41.8289C15.7145 41.8287 15.7132 41.828 15.7116 41.8264C15.71 41.8249 15.7094 41.8235 15.7092 41.8231C15.7091 41.823 15.7091 41.8229 15.7091 41.8227C15.709 41.8226 15.7089 41.8218 15.7089 41.8198H13.7089C13.7089 42.9295 14.6085 43.8292 15.7182 43.8292V41.8292Z" fill="#5C4738" mask="url(#path-4-inside-1)"/>
<path d="M22.2537 30.1226C22.2537 29.8566 22.4692 29.6411 22.7351 29.6411H26.7168C26.9827 29.6411 27.1982 29.8566 27.1982 30.1226V43.8106C27.1982 44.0765 26.9827 44.292 26.7168 44.292H22.7351C22.4692 44.292 22.2537 44.0765 22.2537 43.8106V30.1226ZM24.7261 43.3291C25.5597 43.3291 26.2354 42.6534 26.2354 41.8197V32.1134C26.2354 31.2798 25.5597 30.604 24.7261 30.604C23.8925 30.604 23.2167 31.2798 23.2167 32.1134V41.8197C23.2167 42.6534 23.8925 43.3291 24.7261 43.3291Z" stroke="#5C4738"/>
<path d="M31.2615 35.1382C31.2615 34.8722 31.477 34.6567 31.7429 34.6567H35.7246C35.9905 34.6567 36.206 34.8722 36.206 35.1382V43.8105C36.206 44.0765 35.9905 44.2919 35.7246 44.2919H31.7429C31.477 44.2919 31.2615 44.0765 31.2615 43.8105V35.1382ZM33.7337 43.3292C34.5674 43.3292 35.2431 42.6534 35.2431 41.8198V37.1291C35.2431 36.2955 34.5674 35.6198 33.7337 35.6198C32.9001 35.6198 32.2244 36.2955 32.2244 37.1291V41.8198C32.2244 42.6534 32.9001 43.3292 33.7337 43.3292Z" stroke="#5C4738"/>
<path d="M40.2694 40.9294C40.2694 40.6635 40.4849 40.448 40.7509 40.448C41.0168 40.448 41.2323 40.6635 41.2323 40.9294C41.2323 42.2548 42.3067 43.3291 43.632 43.3291H44.7325C44.9984 43.3291 45.214 43.5446 45.214 43.8106C45.214 44.0765 44.9984 44.292 44.7325 44.292H40.7509C40.4849 44.292 40.2694 44.0765 40.2694 43.8106V40.9294Z" stroke="#5C4738"/>
<path d="M48.3078 42.7806C45.1263 41.9279 42.4692 39.8892 40.8223 37.0367C37.4238 31.1501 39.448 23.5951 45.3345 20.1967L45.3345 20.1967C51.2209 16.7983 58.776 18.8223 62.1745 24.709L62.6075 24.459L62.1745 24.709C63.8214 27.5616 64.2586 30.882 63.4061 34.0635C62.4437 37.655 61.5984 41.9054 63.5826 45.3421L66.0663 49.6442C66.0664 49.6442 66.0664 49.6442 66.0664 49.6443C66.3503 50.1364 66.5 50.6944 66.5 51.2577C66.5 52.409 65.88 53.4827 64.8838 54.0577C64.3758 54.3507 63.8217 54.4897 63.2745 54.4897C62.1547 54.4898 61.0673 53.9093 60.4705 52.8752L60.4705 52.8751L56.2982 45.6467C55.3145 43.9424 53.3609 43.2061 51.5192 43.2061C50.4488 43.2061 49.371 43.0655 48.3078 42.7806ZM48.3078 42.7806L48.1783 43.2635L48.3078 42.7806ZM48.5569 41.8505L48.5569 41.8505C51.4883 42.6356 54.5526 42.2325 57.1806 40.715C59.8087 39.1976 61.6904 36.7457 62.4758 33.8143C63.2613 30.8829 62.8578 27.8186 61.3405 25.1905L60.9075 25.4405L61.3405 25.1905C59.2373 21.5477 55.4084 19.5102 51.48 19.5102C49.5526 19.5102 47.6009 20 45.8159 21.0305L45.8159 21.0305C40.3885 24.1641 38.5226 31.1277 41.656 36.5552L41.656 36.5552C43.1734 39.1833 45.6257 41.065 48.5569 41.8505ZM65.2326 50.1258L65.2324 50.1255L60.7015 42.2777C60.0729 41.1889 58.6742 40.9648 57.6623 41.549C56.6501 42.1333 56.1466 43.4577 56.7746 44.5458L61.3045 52.3939C61.9299 53.4772 63.3193 53.8492 64.4027 53.2236C65.1031 52.8193 65.5371 52.0667 65.5371 51.2579C65.5371 50.8616 65.4313 50.4704 65.2326 50.1258Z" stroke="#5C4738"/>
<path d="M58.609 27.5327L58.609 27.5328C59.4455 29.3083 59.584 31.3228 59 33.2038C58.4125 35.0959 57.1427 36.6844 55.426 37.6756C53.6097 38.7245 51.4908 39.003 49.4652 38.4603L49.4652 38.4603C47.4394 37.9175 45.7439 36.6166 44.6953 34.8003C42.5293 31.0487 43.8191 26.2356 47.5706 24.0697L47.5707 24.0696C50.3129 22.4866 53.7172 22.6983 56.2423 24.6086L56.2423 24.6087C56.4545 24.7693 56.7563 24.7273 56.9166 24.5154L56.9167 24.5153C57.0771 24.3032 57.0353 24.0013 56.8233 23.841L56.8232 23.8409C53.988 21.6956 50.1678 21.4582 47.0891 23.2357C45.0484 24.4138 43.5903 26.3141 42.9804 28.5902C42.3705 30.8662 42.6832 33.2409 43.8614 35.2816L43.8614 35.2816C45.0395 37.3224 46.9398 38.7804 49.2159 39.3904C49.2159 39.3904 49.2159 39.3904 49.2159 39.3904L58.609 27.5327ZM58.609 27.5327C58.4957 27.2923 58.5986 27.0055 58.8393 26.8921L58.609 27.5327Z" stroke="#5C4738"/>
</svg>
