<svg width="79" height="80" viewBox="0 0 79 80" fill="none" xmlns="http://www.w3.org/2000/svg">
<path d="M78.548 33.2321C78.1827 32.867 77.6582 32.7088 77.1524 32.8105L63.8532 35.487C63.2957 35.5994 62.845 36.0092 62.6805 36.5535C62.516 37.0979 62.6643 37.6887 63.0664 38.091C64.0601 39.0847 64.0601 40.6959 63.0664 41.6896L61.3349 43.4211C59.3849 45.3711 56.2233 45.3711 54.2733 43.4211L52.3375 41.4853C52.048 41.1959 51.6556 41.0333 51.2463 41.0333C50.8371 41.0333 50.4447 41.1959 50.1552 41.4853L50.0832 41.5573C48.2902 43.3503 45.2836 41.5951 45.9635 39.1522C46.5752 36.9544 46.1345 34.6521 44.7545 32.8354C44.6165 32.6538 44.4713 32.48 44.3195 32.3142C43.0456 30.9235 42.0302 29.0079 42.6533 27.2279L42.9951 26.2516C43.3174 25.331 44.2236 24.7601 45.1991 24.7601C49.6549 24.7601 53.9994 23.1895 57.4324 20.338L57.8001 20.0326C59.61 18.5289 59.9192 15.9156 58.5045 14.0836C57.7871 13.1545 56.7505 12.5719 55.5854 12.4432C54.4199 12.3143 53.2811 12.6563 52.3793 13.4055L51.9616 13.7525C51.346 14.2637 50.6729 14.7052 49.9609 15.0643C46.7512 16.6833 47.0138 11.614 47.5275 8.056C47.5751 7.7257 47.5998 7.38806 47.5998 7.04476C47.6 3.16029 44.4395 0 40.5549 0C36.6701 0 33.5098 3.16029 33.5098 7.04491C33.5098 9.12716 32.5034 11.7942 30.9986 13.2334C30.9001 13.3275 30.8039 13.4243 30.7102 13.5235C30.6458 13.58 30.5841 13.6411 30.5283 13.7099C27.8079 17.0514 24.1813 19.4481 20.0407 20.6408C18.4358 21.1034 16.3305 21.4828 15.1495 20.3018L14.337 19.4893C12.9532 18.1056 10.7018 18.1058 9.31776 19.4893L5.17867 23.6285L1.03959 27.7676C0.369112 28.438 0 29.3291 0 30.2773C0 31.2254 0.369266 32.1166 1.03944 32.7871L12.4438 44.1914C13.1143 44.8617 14.0054 45.2308 14.9535 45.2308C15.9017 45.2308 16.7929 44.8616 17.4632 44.1914L17.7163 43.9384C18.6457 43.0089 20.1851 44.0063 19.7168 45.2344C19.4131 46.0306 19.8124 46.9224 20.6087 47.2261C20.7897 47.2951 20.9755 47.3278 21.1583 47.3278C21.7799 47.3278 22.3658 46.9494 22.6005 46.3342L25.2069 39.4999C26.685 35.6241 30.4024 33.0633 34.5505 33.0633H37.323H38.9931C40.3015 33.0633 41.5056 33.6608 42.2971 34.7025C43.0885 35.7443 43.3413 37.0646 42.9904 38.3248L39.484 50.9237C39.3263 51.4906 38.805 51.8866 38.2165 51.8866C37.6884 51.8866 37.3628 51.5974 37.2158 51.425C37.0687 51.2527 36.8342 50.8856 36.917 50.3643L38.7828 38.6348C38.8538 38.1887 38.7257 37.7341 38.4325 37.3906C38.1393 37.0471 37.7103 36.8493 37.2588 36.8493H33.6004C33.0185 36.8493 32.486 37.1766 32.2234 37.6958C32.1332 37.8739 23.18 55.5766 20.1629 61.5583C19.8609 62.1574 19.2043 62.4992 18.531 62.407L18.4579 62.3972C17.9985 62.3351 17.5995 62.0709 17.3626 61.6724C17.1257 61.2738 17.0848 60.7968 17.2501 60.3638L18.201 57.8706C18.5047 57.0744 18.1053 56.1828 17.3091 55.8789C16.513 55.5752 15.6212 55.9747 15.3174 56.7708L14.3665 59.264C13.8636 60.5828 13.9886 62.035 14.7094 63.2485C15.4302 64.4618 16.6457 65.2664 18.0431 65.4556L18.1163 65.4653C18.3278 65.4942 18.5386 65.5079 18.748 65.5079C20.4951 65.5079 22.12 64.5317 22.9186 62.9482C25.4921 57.8457 32.3876 44.2098 34.4121 40.2068C34.498 40.037 34.6693 39.9355 34.8596 39.9355C35.17 39.9355 35.4068 40.213 35.358 40.5195L33.8692 49.8795C33.6666 51.1536 34.0308 52.4473 34.8686 53.4286C35.5923 54.2765 35.9383 55.7027 35.15 56.4909L19.6879 71.953C19.3986 72.2425 19.2359 72.6349 19.2359 73.0442C19.2359 73.4534 19.3986 73.846 19.6879 74.1353L24.114 78.5612C24.4154 78.8624 24.8103 79.0132 25.2051 79.0132C25.6 79.0132 25.9949 78.8624 26.2963 78.5612L34.8051 70.0524C35.4077 69.4498 35.4077 68.4727 34.8051 67.8699C34.2024 67.2675 33.2256 67.2675 32.6227 67.8699L26.327 74.1658C25.7074 74.7854 24.7029 74.7854 24.0833 74.1658C23.4637 73.5463 23.4637 72.5417 24.0833 71.9222L45.7801 50.2252C48.7992 47.206 53.6941 47.206 56.7133 50.2251C57.0028 50.5145 57.3952 50.6771 57.8044 50.6771C58.2136 50.6771 58.606 50.5145 58.8955 50.2251L68.1392 40.9813C68.7418 40.3787 68.7418 39.4016 68.1392 38.7989C67.7737 38.4333 67.9626 37.8078 68.4694 37.7058L71.8258 37.0304C73.5651 36.6804 75.0995 38.2148 74.7495 39.9541L74.19 42.7343C74.0384 43.4876 73.1088 43.7684 72.5655 43.2251C71.9627 42.6227 70.986 42.6227 70.3831 43.2251L63.2709 50.3373C60.2517 53.3564 55.3568 53.3564 52.3376 50.3373C51.7349 49.7349 50.7581 49.7349 50.1552 50.3373L41.3516 59.1409C40.749 59.7435 40.749 60.7206 41.3516 61.3233C41.9544 61.9257 42.9311 61.9257 43.534 61.3233L45.7797 59.0776C48.7989 56.0585 53.6938 56.0585 56.713 59.0776C57.3157 59.6801 58.2925 59.6801 58.8954 59.0776L69.2592 48.7138C70.4825 47.4905 72.4659 47.4905 73.6892 48.7138C74.0913 49.1159 74.6825 49.2645 75.2266 49.0997C75.771 48.9354 76.181 48.4846 76.2932 47.927L78.9697 34.6277C79.0715 34.1214 78.9132 33.5975 78.548 33.2321ZM40.5549 3.08622C42.7378 3.08622 44.5136 4.86218 44.5136 7.04491C44.5136 9.22779 42.7376 11.0038 40.5549 11.0038C38.372 11.0038 36.5961 9.22779 36.5961 7.04491C36.5961 4.86218 38.372 3.08622 40.5549 3.08622ZM25.6293 29.1164C25.4772 29.7012 24.7473 29.8996 24.32 29.4723L24.2867 29.439C23.8842 29.0365 24.0489 28.3482 24.5822 28.1491C25.178 27.9266 25.7991 28.4637 25.639 29.0792L25.6293 29.1164ZM20.0777 25.0851C19.8953 24.4521 20.2621 23.7889 20.8951 23.6065C22.4582 23.1561 23.9566 22.5549 25.3752 21.8149C26.2868 21.3394 27.4369 22.1678 27.1781 23.1628C27.1015 23.4572 26.9079 23.7083 26.639 23.8506C25.0269 24.704 23.3225 25.3934 21.5558 25.9023C21.5202 25.9125 21.4829 25.9215 21.446 25.9286C21.2705 25.9619 21.095 25.9532 20.9301 25.9097C20.7264 25.8559 20.5617 25.7142 20.4128 25.5652L20.3798 25.5323C20.2507 25.4032 20.1283 25.2605 20.0777 25.0851ZM11.4999 21.6716C11.5901 21.5813 11.7088 21.5362 11.8273 21.5362C11.9458 21.5362 12.0645 21.5813 12.1546 21.6716L17.3196 26.8366C17.6258 27.1427 17.8982 27.486 18.2041 27.7924C18.5142 28.103 18.8579 28.3749 19.1682 28.6852L23.5591 33.0761C23.7397 33.2565 23.7397 33.5503 23.5591 33.7307L22.206 35.0837C21.27 36.0198 19.7523 36.0198 18.8163 35.0837L17.767 34.0345C17.4105 33.6779 17.4105 33.0998 17.767 32.7432C18.3696 32.1406 18.3696 31.1636 17.767 30.5608L14.2935 27.0873C13.6908 26.4848 12.714 26.4848 12.1111 27.0873C11.7545 27.4438 11.1764 27.4438 10.8198 27.0873L9.95871 26.2262C9.12654 25.394 9.12655 24.0448 9.95874 23.2126L11.4999 21.6716ZM13.6121 32.5337C13.4644 32.6814 13.292 32.7036 13.2024 32.7036C13.1129 32.7036 12.9406 32.6814 12.7929 32.5339C12.7929 32.5339 12.7928 32.5338 12.7928 32.5338C12.7928 32.5337 12.7928 32.5337 12.7928 32.5336L12.3208 32.0618C12.1733 31.9141 12.1511 31.7418 12.1511 31.6523C12.1511 31.5626 12.1733 31.3902 12.321 31.2426L12.5568 31.0067C12.9134 30.6502 13.4914 30.6502 13.8479 31.0067C14.2045 31.3632 14.2045 31.9413 13.8479 32.2978L13.6121 32.5337ZM15.2808 42.0091C15.1686 42.1212 15.041 42.1446 14.9535 42.1446C14.8662 42.1446 14.7382 42.1212 14.6262 42.009L3.22186 30.6046C3.10967 30.4925 3.08622 30.3647 3.08622 30.2773C3.08622 30.1898 3.10967 30.0621 3.22186 29.9501L4.42353 28.7483C5.44312 27.7287 7.09623 27.7286 8.11587 28.7482L8.26273 28.8951C8.96018 29.5925 9.06484 30.6659 9.06484 31.6523C9.06484 32.6315 9.4463 33.552 10.1385 34.2442L10.6104 34.7159C10.6104 34.7159 10.6104 34.716 10.6104 34.716C10.6104 34.7161 10.6104 34.7161 10.6105 34.7162C11.3027 35.4084 12.2233 35.7898 13.2024 35.7898C14.1887 35.7898 15.2622 35.8945 15.9596 36.5919L16.2629 36.8952C17.4039 38.0362 17.4039 39.8861 16.2629 41.0271L15.2808 42.0091ZM37.3229 29.9771C32.906 29.9771 29.6799 25.8043 30.7918 21.5297L31.7644 17.7907C32.3314 15.6118 34.2996 14.0901 36.551 14.0901C37.9418 14.0901 39.2283 14.6509 40.1735 15.6692C43.0727 18.7931 47.6694 19.6774 51.3511 17.82C52.2705 17.3563 53.1396 16.7867 53.934 16.1266L54.3517 15.7795C54.6035 15.5703 54.9213 15.4743 55.2469 15.511C55.5717 15.5468 55.8612 15.7098 56.0621 15.9701C56.4499 16.4721 56.3448 17.2297 55.8281 17.6589L55.4606 17.9643C52.5805 20.3567 48.9363 21.6742 45.1992 21.6742C44.3877 21.6742 43.5583 21.6092 42.7338 21.481C41.9979 21.3656 41.286 21.7933 41.0401 22.4959L38.784 28.9405C38.5666 29.5614 37.9807 29.9771 37.3229 29.9771Z" fill="white"/>
<path d="M38.1076 63.0823C37.7017 63.0823 37.3036 63.2472 37.0166 63.5344C36.7296 63.8213 36.5645 64.2194 36.5645 64.6254C36.5645 65.0328 36.7294 65.4293 37.0166 65.7162C37.3036 66.0048 37.7017 66.1685 38.1076 66.1685C38.5134 66.1685 38.9115 66.0048 39.1984 65.7162C39.4854 65.4293 39.6507 65.0326 39.6507 64.6254C39.6507 64.2194 39.4856 63.8213 39.1984 63.5344C38.9115 63.2472 38.5134 63.0823 38.1076 63.0823Z" fill="white"/>
<path d="M18.956 53.1045C19.3618 53.1045 19.76 52.9394 20.047 52.6522C20.3339 52.3654 20.4991 51.9673 20.4991 51.5614C20.4991 51.1556 20.334 50.7575 20.047 50.4704C19.7584 50.1834 19.3618 50.0183 18.956 50.0183C18.5502 50.0183 18.1521 50.1833 17.8635 50.4704C17.5766 50.7575 17.4129 51.1556 17.4129 51.5614C17.4129 51.9673 17.5766 52.3654 17.8635 52.6522C18.1521 52.9393 18.5486 53.1045 18.956 53.1045Z" fill="white"/>
</svg>
